<svg width="180" height="180" viewBox="0 0 180 180" fill="none" xmlns="http://www.w3.org/2000/svg">
  <!-- T Letter with glow effect, transparent background -->
  
  <!-- Glow layer -->
  <g filter="url(#glow)">
    <!-- Vertical stem with pointed bottom (inverted V) -->
    <path d="M 80 40 L 80 140 L 100 140 L 100 150 L 70 150 L 70 170 L 110 170 L 110 150 L 90 150 L 90 140 Z" 
          fill="#00d4ff"/>
  </g>
  
  <!-- Horizontal bar with inward angled ends -->
  <g filter="url(#glow)">
    <path d="M 40 90 L 60 70 L 70 90 L 130 90 L 120 70 L 110 90 Z" 
          fill="#00d4ff"/>
  </g>
  
  <!-- Main T layer -->
  <!-- Vertical stem -->
  <path d="M 85 50 L 85 130 L 95 130 L 95 145 L 75 145 L 75 165 L 105 165 L 105 145 L 85 145 L 85 130 Z" 
        fill="#06b6d4"
        opacity="0.95"/>
  
  <!-- Horizontal bar with inward angled ends -->
  <path d="M 50 95 L 70 80 L 80 95 L 130 95 L 120 80 L 110 95 Z" 
        fill="#06b6d4"
        opacity="0.95"/>
  
  <!-- Glow filter -->
  <defs>
    <filter id="glow" x="-50%" y="-50%" width="200%" height="200%">
      <feGaussianBlur stdDeviation="2" result="coloredBlur"/>
      <feMerge>
        <feMergeNode in="coloredBlur"/>
        <feMergeNode in="SourceGraphic"/>
      </feMerge>
    </filter>
  </defs>
</svg>
